<mxfile host="app.diagrams.net" modified="2020-12-09T04:58:02.456Z" agent="5.0 (Windows NT 10.0; Win64; x64) AppleWebKit/537.36 (KHTML, like Gecko) Chrome/87.0.4280.88 Safari/537.36" etag="t3LcHcY7JQR2ZR3t5yhX" version="13.10.6" type="github" pages="2">
  <diagram id="P1l4AtwmSs6WYeQG2Cq-" name="login">
    <mxGraphModel dx="865" dy="463" grid="1" gridSize="10" guides="1" tooltips="1" connect="1" arrows="1" fold="1" page="1" pageScale="1" pageWidth="827" pageHeight="1169" math="0" shadow="0">
      <root>
        <mxCell id="0" />
        <mxCell id="1" parent="0" />
        <mxCell id="mSNc6DCKcYe2GIicLUqM-34" value="login" style="swimlane;html=1;childLayout=stackLayout;resizeParent=1;resizeParentMax=0;startSize=20;" vertex="1" parent="1">
          <mxGeometry x="270" y="250" width="520" height="550" as="geometry">
            <mxRectangle x="270" y="250" width="60" height="20" as="alternateBounds" />
          </mxGeometry>
        </mxCell>
        <mxCell id="mSNc6DCKcYe2GIicLUqM-35" value="warga" style="swimlane;html=1;startSize=20;" vertex="1" parent="mSNc6DCKcYe2GIicLUqM-34">
          <mxGeometry y="20" width="260" height="530" as="geometry" />
        </mxCell>
        <mxCell id="mSNc6DCKcYe2GIicLUqM-1" value="" style="ellipse;fillColor=#000000;strokeColor=none;" vertex="1" parent="mSNc6DCKcYe2GIicLUqM-35">
          <mxGeometry x="115" y="30" width="30" height="30" as="geometry" />
        </mxCell>
        <mxCell id="mSNc6DCKcYe2GIicLUqM-4" value="" style="endArrow=open;endFill=1;endSize=12;html=1;exitX=0.5;exitY=1;exitDx=0;exitDy=0;entryX=0.5;entryY=0;entryDx=0;entryDy=0;" edge="1" parent="mSNc6DCKcYe2GIicLUqM-35" source="mSNc6DCKcYe2GIicLUqM-1" target="mSNc6DCKcYe2GIicLUqM-3">
          <mxGeometry width="160" relative="1" as="geometry">
            <mxPoint x="105" y="280" as="sourcePoint" />
            <mxPoint x="130" y="110" as="targetPoint" />
          </mxGeometry>
        </mxCell>
        <mxCell id="mSNc6DCKcYe2GIicLUqM-3" value="membuka halaman web" style="shape=rect;html=1;rounded=1;whiteSpace=wrap;align=center;" vertex="1" parent="mSNc6DCKcYe2GIicLUqM-35">
          <mxGeometry x="45" y="110" width="170" height="40" as="geometry" />
        </mxCell>
        <mxCell id="mSNc6DCKcYe2GIicLUqM-7" value="memasukkan email dan password" style="shape=rect;html=1;rounded=1;whiteSpace=wrap;align=center;" vertex="1" parent="mSNc6DCKcYe2GIicLUqM-35">
          <mxGeometry x="45" y="200" width="170" height="40" as="geometry" />
        </mxCell>
        <mxCell id="mSNc6DCKcYe2GIicLUqM-36" value="sistem" style="swimlane;html=1;startSize=20;" vertex="1" parent="mSNc6DCKcYe2GIicLUqM-34">
          <mxGeometry x="260" y="20" width="260" height="530" as="geometry" />
        </mxCell>
        <mxCell id="mSNc6DCKcYe2GIicLUqM-38" value="tampil form login" style="shape=rect;html=1;rounded=1;whiteSpace=wrap;align=center;" vertex="1" parent="mSNc6DCKcYe2GIicLUqM-36">
          <mxGeometry x="45" y="110" width="170" height="40" as="geometry" />
        </mxCell>
        <mxCell id="mSNc6DCKcYe2GIicLUqM-5" value="" style="rhombus;" vertex="1" parent="mSNc6DCKcYe2GIicLUqM-36">
          <mxGeometry x="115" y="260" width="30" height="30" as="geometry" />
        </mxCell>
        <mxCell id="mSNc6DCKcYe2GIicLUqM-20" value="benar?" style="text;html=1;align=center;verticalAlign=middle;resizable=0;points=[];autosize=1;" vertex="1" parent="mSNc6DCKcYe2GIicLUqM-36">
          <mxGeometry x="105" y="240" width="50" height="20" as="geometry" />
        </mxCell>
        <mxCell id="mSNc6DCKcYe2GIicLUqM-39" value="" style="endArrow=open;endFill=1;endSize=12;html=1;exitX=1;exitY=0.5;exitDx=0;exitDy=0;edgeStyle=elbowEdgeStyle;" edge="1" parent="mSNc6DCKcYe2GIicLUqM-36" source="mSNc6DCKcYe2GIicLUqM-5">
          <mxGeometry width="160" relative="1" as="geometry">
            <mxPoint x="150" y="470" as="sourcePoint" />
            <mxPoint x="215" y="130" as="targetPoint" />
            <Array as="points">
              <mxPoint x="230" y="210" />
            </Array>
          </mxGeometry>
        </mxCell>
        <mxCell id="mSNc6DCKcYe2GIicLUqM-40" value="tidak" style="edgeLabel;html=1;align=center;verticalAlign=middle;resizable=0;points=[];" vertex="1" connectable="0" parent="mSNc6DCKcYe2GIicLUqM-39">
          <mxGeometry x="0.4136" y="1" relative="1" as="geometry">
            <mxPoint as="offset" />
          </mxGeometry>
        </mxCell>
        <mxCell id="mSNc6DCKcYe2GIicLUqM-11" value="masuk halaman beranda" style="shape=rect;html=1;rounded=1;whiteSpace=wrap;align=center;" vertex="1" parent="mSNc6DCKcYe2GIicLUqM-36">
          <mxGeometry x="45" y="380" width="170" height="40" as="geometry" />
        </mxCell>
        <mxCell id="mSNc6DCKcYe2GIicLUqM-42" value="" style="endArrow=open;endFill=1;endSize=12;html=1;exitX=0.5;exitY=1;exitDx=0;exitDy=0;entryX=0.5;entryY=0;entryDx=0;entryDy=0;elbow=vertical;" edge="1" parent="mSNc6DCKcYe2GIicLUqM-36" source="mSNc6DCKcYe2GIicLUqM-5" target="mSNc6DCKcYe2GIicLUqM-11">
          <mxGeometry width="160" relative="1" as="geometry">
            <mxPoint x="150" y="500" as="sourcePoint" />
            <mxPoint x="395" y="535" as="targetPoint" />
          </mxGeometry>
        </mxCell>
        <mxCell id="mSNc6DCKcYe2GIicLUqM-43" value="ya" style="edgeLabel;html=1;align=center;verticalAlign=middle;resizable=0;points=[];" vertex="1" connectable="0" parent="mSNc6DCKcYe2GIicLUqM-42">
          <mxGeometry x="-0.2741" y="-1" relative="1" as="geometry">
            <mxPoint as="offset" />
          </mxGeometry>
        </mxCell>
        <mxCell id="CRTFlkZgov-Sdi3ET4QS-1" value="" style="ellipse;html=1;shape=endState;fillColor=#000000;strokeColor=#000000;" vertex="1" parent="mSNc6DCKcYe2GIicLUqM-36">
          <mxGeometry x="115" y="480" width="30" height="30" as="geometry" />
        </mxCell>
        <mxCell id="CRTFlkZgov-Sdi3ET4QS-3" value="" style="endArrow=open;endFill=1;endSize=12;html=1;exitX=0.5;exitY=1;exitDx=0;exitDy=0;entryX=0.5;entryY=0;entryDx=0;entryDy=0;" edge="1" parent="mSNc6DCKcYe2GIicLUqM-36" source="mSNc6DCKcYe2GIicLUqM-11" target="CRTFlkZgov-Sdi3ET4QS-1">
          <mxGeometry width="160" relative="1" as="geometry">
            <mxPoint x="-160" y="570" as="sourcePoint" />
            <mxPoint y="570" as="targetPoint" />
          </mxGeometry>
        </mxCell>
        <mxCell id="mSNc6DCKcYe2GIicLUqM-8" value="" style="endArrow=open;endFill=1;endSize=12;html=1;exitX=1;exitY=0.5;exitDx=0;exitDy=0;entryX=0;entryY=0.5;entryDx=0;entryDy=0;" edge="1" parent="mSNc6DCKcYe2GIicLUqM-34" source="mSNc6DCKcYe2GIicLUqM-3" target="mSNc6DCKcYe2GIicLUqM-38">
          <mxGeometry width="160" relative="1" as="geometry">
            <mxPoint x="95" y="170" as="sourcePoint" />
            <mxPoint x="95" y="220" as="targetPoint" />
          </mxGeometry>
        </mxCell>
        <mxCell id="mSNc6DCKcYe2GIicLUqM-6" value="" style="endArrow=open;endFill=1;endSize=12;html=1;entryX=0.5;entryY=0;entryDx=0;entryDy=0;exitX=0.5;exitY=1;exitDx=0;exitDy=0;edgeStyle=elbowEdgeStyle;elbow=vertical;" edge="1" parent="mSNc6DCKcYe2GIicLUqM-34" source="mSNc6DCKcYe2GIicLUqM-38" target="mSNc6DCKcYe2GIicLUqM-7">
          <mxGeometry width="160" relative="1" as="geometry">
            <mxPoint x="95" y="260" as="sourcePoint" />
            <mxPoint x="105" y="140" as="targetPoint" />
          </mxGeometry>
        </mxCell>
        <mxCell id="mSNc6DCKcYe2GIicLUqM-16" value="" style="endArrow=open;endFill=1;endSize=12;html=1;exitX=0.5;exitY=1;exitDx=0;exitDy=0;entryX=0;entryY=0.5;entryDx=0;entryDy=0;edgeStyle=elbowEdgeStyle;elbow=vertical;" edge="1" source="mSNc6DCKcYe2GIicLUqM-7" target="mSNc6DCKcYe2GIicLUqM-5" parent="mSNc6DCKcYe2GIicLUqM-34">
          <mxGeometry width="160" relative="1" as="geometry">
            <mxPoint x="519" y="270" as="sourcePoint" />
            <mxPoint x="95" y="400" as="targetPoint" />
            <Array as="points">
              <mxPoint x="250" y="295" />
            </Array>
          </mxGeometry>
        </mxCell>
      </root>
    </mxGraphModel>
  </diagram>
  <diagram id="YOOapaL96-Tt6NSXVp3V" name="pendataan">
    <mxGraphModel dx="1038" dy="1725" grid="1" gridSize="10" guides="1" tooltips="1" connect="1" arrows="1" fold="1" page="1" pageScale="1" pageWidth="827" pageHeight="1169" math="0" shadow="0">
      <root>
        <mxCell id="VSjCJC4euqaZ8-e5CSKN-0" />
        <mxCell id="VSjCJC4euqaZ8-e5CSKN-1" parent="VSjCJC4euqaZ8-e5CSKN-0" />
        <mxCell id="VSjCJC4euqaZ8-e5CSKN-2" value="pendataan" style="swimlane;html=1;childLayout=stackLayout;resizeParent=1;resizeParentMax=0;startSize=20;" vertex="1" parent="VSjCJC4euqaZ8-e5CSKN-1">
          <mxGeometry x="240" y="-50" width="700" height="800" as="geometry" />
        </mxCell>
        <mxCell id="VSjCJC4euqaZ8-e5CSKN-3" value="warga" style="swimlane;html=1;startSize=20;" vertex="1" parent="VSjCJC4euqaZ8-e5CSKN-2">
          <mxGeometry y="20" width="270" height="780" as="geometry" />
        </mxCell>
        <mxCell id="4o0Wy-b1NMQ2TcVA-PpA-0" value="" style="ellipse;fillColor=#000000;strokeColor=none;" vertex="1" parent="VSjCJC4euqaZ8-e5CSKN-3">
          <mxGeometry x="110" y="30" width="30" height="30" as="geometry" />
        </mxCell>
        <mxCell id="4o0Wy-b1NMQ2TcVA-PpA-1" value="masuk halaman beranda" style="shape=rect;html=1;rounded=1;whiteSpace=wrap;align=center;" vertex="1" parent="VSjCJC4euqaZ8-e5CSKN-3">
          <mxGeometry x="47.5" y="100" width="155" height="40" as="geometry" />
        </mxCell>
        <mxCell id="4o0Wy-b1NMQ2TcVA-PpA-2" value="" style="endArrow=open;endFill=1;endSize=12;html=1;exitX=0.5;exitY=1;exitDx=0;exitDy=0;entryX=0.5;entryY=0;entryDx=0;entryDy=0;" edge="1" parent="VSjCJC4euqaZ8-e5CSKN-3" source="4o0Wy-b1NMQ2TcVA-PpA-0" target="4o0Wy-b1NMQ2TcVA-PpA-1">
          <mxGeometry width="160" relative="1" as="geometry">
            <mxPoint x="50" y="340" as="sourcePoint" />
            <mxPoint x="210" y="340" as="targetPoint" />
          </mxGeometry>
        </mxCell>
        <mxCell id="fLzw37gGoa5K4S7n3afN-6" value="masukkan data" style="html=1;align=center;verticalAlign=top;rounded=1;absoluteArcSize=1;arcSize=10;dashed=0;whiteSpace=wrap;" vertex="1" parent="VSjCJC4euqaZ8-e5CSKN-3">
          <mxGeometry x="62.5" y="276" width="140" height="40" as="geometry" />
        </mxCell>
        <mxCell id="fLzw37gGoa5K4S7n3afN-8" value="kirim data" style="html=1;align=center;verticalAlign=top;rounded=1;absoluteArcSize=1;arcSize=10;dashed=0;whiteSpace=wrap;" vertex="1" parent="VSjCJC4euqaZ8-e5CSKN-3">
          <mxGeometry x="62.5" y="366" width="140" height="40" as="geometry" />
        </mxCell>
        <mxCell id="fLzw37gGoa5K4S7n3afN-10" value="" style="endArrow=open;endFill=1;endSize=12;html=1;exitX=0.5;exitY=1;exitDx=0;exitDy=0;entryX=0.5;entryY=0;entryDx=0;entryDy=0;" edge="1" parent="VSjCJC4euqaZ8-e5CSKN-3" source="fLzw37gGoa5K4S7n3afN-6" target="fLzw37gGoa5K4S7n3afN-8">
          <mxGeometry width="160" relative="1" as="geometry">
            <mxPoint x="560" y="346" as="sourcePoint" />
            <mxPoint x="472.5" y="346" as="targetPoint" />
          </mxGeometry>
        </mxCell>
        <mxCell id="fLzw37gGoa5K4S7n3afN-19" value="" style="ellipse;html=1;shape=endState;fillColor=#000000;strokeColor=#000000;" vertex="1" parent="VSjCJC4euqaZ8-e5CSKN-3">
          <mxGeometry x="117.5" y="656" width="30" height="30" as="geometry" />
        </mxCell>
        <mxCell id="4MG4baAXTeGthbNdgmhY-0" value="menerima email konfirmasi" style="html=1;align=center;verticalAlign=top;rounded=1;absoluteArcSize=1;arcSize=10;dashed=0;whiteSpace=wrap;" vertex="1" parent="VSjCJC4euqaZ8-e5CSKN-3">
          <mxGeometry x="62.5" y="566" width="140" height="40" as="geometry" />
        </mxCell>
        <mxCell id="4MG4baAXTeGthbNdgmhY-4" value="" style="endArrow=open;endFill=1;endSize=12;html=1;exitX=0.5;exitY=1;exitDx=0;exitDy=0;entryX=0.5;entryY=0;entryDx=0;entryDy=0;" edge="1" parent="VSjCJC4euqaZ8-e5CSKN-3" source="4MG4baAXTeGthbNdgmhY-0" target="fLzw37gGoa5K4S7n3afN-19">
          <mxGeometry width="160" relative="1" as="geometry">
            <mxPoint x="560" y="636" as="sourcePoint" />
            <mxPoint x="472.5" y="636" as="targetPoint" />
          </mxGeometry>
        </mxCell>
        <mxCell id="VSjCJC4euqaZ8-e5CSKN-4" value="sistem" style="swimlane;html=1;startSize=20;" vertex="1" parent="VSjCJC4euqaZ8-e5CSKN-2">
          <mxGeometry x="270" y="20" width="220" height="780" as="geometry" />
        </mxCell>
        <mxCell id="fLzw37gGoa5K4S7n3afN-0" value="" style="rhombus;" vertex="1" parent="VSjCJC4euqaZ8-e5CSKN-4">
          <mxGeometry x="95" y="201" width="30" height="30" as="geometry" />
        </mxCell>
        <mxCell id="fLzw37gGoa5K4S7n3afN-1" value="update data?" style="text;html=1;align=center;verticalAlign=middle;resizable=0;points=[];autosize=1;" vertex="1" parent="VSjCJC4euqaZ8-e5CSKN-4">
          <mxGeometry x="130" y="206" width="90" height="20" as="geometry" />
        </mxCell>
        <mxCell id="fLzw37gGoa5K4S7n3afN-4" value="tampilkan form update data" style="html=1;align=center;verticalAlign=top;rounded=1;absoluteArcSize=1;arcSize=10;dashed=0;whiteSpace=wrap;" vertex="1" parent="VSjCJC4euqaZ8-e5CSKN-4">
          <mxGeometry x="40" y="276" width="140" height="40" as="geometry" />
        </mxCell>
        <mxCell id="fLzw37gGoa5K4S7n3afN-5" value="" style="endArrow=open;endFill=1;endSize=12;html=1;exitX=0.5;exitY=1;exitDx=0;exitDy=0;entryX=0.5;entryY=0;entryDx=0;entryDy=0;" edge="1" parent="VSjCJC4euqaZ8-e5CSKN-4" source="fLzw37gGoa5K4S7n3afN-0" target="fLzw37gGoa5K4S7n3afN-4">
          <mxGeometry width="160" relative="1" as="geometry">
            <mxPoint x="222.5" y="266" as="sourcePoint" />
            <mxPoint x="365" y="266" as="targetPoint" />
          </mxGeometry>
        </mxCell>
        <mxCell id="4MG4baAXTeGthbNdgmhY-5" value="ya" style="edgeLabel;html=1;align=center;verticalAlign=middle;resizable=0;points=[];" vertex="1" connectable="0" parent="fLzw37gGoa5K4S7n3afN-5">
          <mxGeometry x="-0.5022" y="1" relative="1" as="geometry">
            <mxPoint as="offset" />
          </mxGeometry>
        </mxCell>
        <mxCell id="fLzw37gGoa5K4S7n3afN-9" value="simpan perubahan data" style="html=1;align=center;verticalAlign=top;rounded=1;absoluteArcSize=1;arcSize=10;dashed=0;whiteSpace=wrap;" vertex="1" parent="VSjCJC4euqaZ8-e5CSKN-4">
          <mxGeometry x="40" y="566" width="140" height="40" as="geometry" />
        </mxCell>
        <mxCell id="fLzw37gGoa5K4S7n3afN-3" value="proses update data" style="shape=rect;html=1;rounded=1;whiteSpace=wrap;align=center;" vertex="1" parent="VSjCJC4euqaZ8-e5CSKN-4">
          <mxGeometry x="32.5" y="366" width="155" height="40" as="geometry" />
        </mxCell>
        <mxCell id="fLzw37gGoa5K4S7n3afN-14" value="" style="rhombus;" vertex="1" parent="VSjCJC4euqaZ8-e5CSKN-4">
          <mxGeometry x="95" y="456" width="30" height="30" as="geometry" />
        </mxCell>
        <mxCell id="fLzw37gGoa5K4S7n3afN-16" value="valid?" style="text;html=1;align=center;verticalAlign=middle;resizable=0;points=[];autosize=1;" vertex="1" parent="VSjCJC4euqaZ8-e5CSKN-4">
          <mxGeometry x="85" y="436" width="50" height="20" as="geometry" />
        </mxCell>
        <mxCell id="fLzw37gGoa5K4S7n3afN-17" value="" style="endArrow=open;endFill=1;endSize=12;html=1;exitX=0.5;exitY=1;exitDx=0;exitDy=0;entryX=0.5;entryY=0;entryDx=0;entryDy=0;" edge="1" parent="VSjCJC4euqaZ8-e5CSKN-4" source="fLzw37gGoa5K4S7n3afN-14" target="fLzw37gGoa5K4S7n3afN-9">
          <mxGeometry width="160" relative="1" as="geometry">
            <mxPoint x="222.5" y="436" as="sourcePoint" />
            <mxPoint x="302.5" y="436" as="targetPoint" />
          </mxGeometry>
        </mxCell>
        <mxCell id="fLzw37gGoa5K4S7n3afN-18" value="ya" style="edgeLabel;html=1;align=center;verticalAlign=middle;resizable=0;points=[];" vertex="1" connectable="0" parent="fLzw37gGoa5K4S7n3afN-17">
          <mxGeometry x="-0.245" y="2" relative="1" as="geometry">
            <mxPoint x="-2" as="offset" />
          </mxGeometry>
        </mxCell>
        <mxCell id="4MG4baAXTeGthbNdgmhY-6" value="tampilkan halaman beranda" style="shape=rect;html=1;rounded=1;whiteSpace=wrap;align=center;" vertex="1" parent="VSjCJC4euqaZ8-e5CSKN-4">
          <mxGeometry x="32.5" y="100" width="155" height="40" as="geometry" />
        </mxCell>
        <mxCell id="4MG4baAXTeGthbNdgmhY-7" value="" style="endArrow=open;endFill=1;endSize=12;html=1;entryX=0.5;entryY=0;entryDx=0;entryDy=0;exitX=0.5;exitY=1;exitDx=0;exitDy=0;" edge="1" parent="VSjCJC4euqaZ8-e5CSKN-4" source="4MG4baAXTeGthbNdgmhY-6" target="fLzw37gGoa5K4S7n3afN-0">
          <mxGeometry width="160" relative="1" as="geometry">
            <mxPoint x="182.5" y="80" as="sourcePoint" />
            <mxPoint x="282.5" y="80" as="targetPoint" />
          </mxGeometry>
        </mxCell>
        <mxCell id="4MG4baAXTeGthbNdgmhY-8" value="" style="endArrow=open;endFill=1;endSize=12;html=1;entryX=0.25;entryY=1;entryDx=0;entryDy=0;exitX=0;exitY=0.5;exitDx=0;exitDy=0;edgeStyle=orthogonalEdgeStyle;" edge="1" parent="VSjCJC4euqaZ8-e5CSKN-4" source="fLzw37gGoa5K4S7n3afN-0" target="4MG4baAXTeGthbNdgmhY-6">
          <mxGeometry width="160" relative="1" as="geometry">
            <mxPoint x="630" y="120" as="sourcePoint" />
            <mxPoint x="630" y="181" as="targetPoint" />
          </mxGeometry>
        </mxCell>
        <mxCell id="4MG4baAXTeGthbNdgmhY-9" value="tidak" style="edgeLabel;html=1;align=center;verticalAlign=middle;resizable=0;points=[];" vertex="1" connectable="0" parent="4MG4baAXTeGthbNdgmhY-8">
          <mxGeometry x="-0.0552" y="1" relative="1" as="geometry">
            <mxPoint as="offset" />
          </mxGeometry>
        </mxCell>
        <mxCell id="VSjCJC4euqaZ8-e5CSKN-5" value="petugas" style="swimlane;html=1;startSize=20;" vertex="1" parent="VSjCJC4euqaZ8-e5CSKN-2">
          <mxGeometry x="490" y="20" width="210" height="780" as="geometry" />
        </mxCell>
        <mxCell id="fLzw37gGoa5K4S7n3afN-11" value="konfirmasi dan validasi update data" style="shape=rect;html=1;rounded=1;whiteSpace=wrap;align=center;" vertex="1" parent="VSjCJC4euqaZ8-e5CSKN-5">
          <mxGeometry x="27.5" y="366" width="155" height="40" as="geometry" />
        </mxCell>
        <mxCell id="fLzw37gGoa5K4S7n3afN-2" value="" style="endArrow=open;endFill=1;endSize=12;html=1;entryX=0;entryY=0.5;entryDx=0;entryDy=0;exitX=1;exitY=0.5;exitDx=0;exitDy=0;" edge="1" parent="VSjCJC4euqaZ8-e5CSKN-2" source="4o0Wy-b1NMQ2TcVA-PpA-1" target="4MG4baAXTeGthbNdgmhY-6">
          <mxGeometry width="160" relative="1" as="geometry">
            <mxPoint x="230" y="236" as="sourcePoint" />
            <mxPoint x="395" y="286" as="targetPoint" />
          </mxGeometry>
        </mxCell>
        <mxCell id="fLzw37gGoa5K4S7n3afN-7" value="" style="endArrow=open;endFill=1;endSize=12;html=1;exitX=0;exitY=0.5;exitDx=0;exitDy=0;entryX=1;entryY=0.5;entryDx=0;entryDy=0;" edge="1" parent="VSjCJC4euqaZ8-e5CSKN-2" source="fLzw37gGoa5K4S7n3afN-4" target="fLzw37gGoa5K4S7n3afN-6">
          <mxGeometry width="160" relative="1" as="geometry">
            <mxPoint x="880" y="321" as="sourcePoint" />
            <mxPoint x="880" y="366" as="targetPoint" />
          </mxGeometry>
        </mxCell>
        <mxCell id="fLzw37gGoa5K4S7n3afN-12" value="" style="endArrow=open;endFill=1;endSize=12;html=1;exitX=1;exitY=0.5;exitDx=0;exitDy=0;entryX=0;entryY=0.5;entryDx=0;entryDy=0;" edge="1" parent="VSjCJC4euqaZ8-e5CSKN-2" source="fLzw37gGoa5K4S7n3afN-8" target="fLzw37gGoa5K4S7n3afN-3">
          <mxGeometry width="160" relative="1" as="geometry">
            <mxPoint x="402.5" y="406" as="sourcePoint" />
            <mxPoint x="402.5" y="456" as="targetPoint" />
          </mxGeometry>
        </mxCell>
        <mxCell id="fLzw37gGoa5K4S7n3afN-13" value="" style="endArrow=open;endFill=1;endSize=12;html=1;exitX=1;exitY=0.5;exitDx=0;exitDy=0;entryX=0;entryY=0.5;entryDx=0;entryDy=0;" edge="1" parent="VSjCJC4euqaZ8-e5CSKN-2" source="fLzw37gGoa5K4S7n3afN-3" target="fLzw37gGoa5K4S7n3afN-11">
          <mxGeometry width="160" relative="1" as="geometry">
            <mxPoint x="472.5" y="456" as="sourcePoint" />
            <mxPoint x="552.5" y="456" as="targetPoint" />
          </mxGeometry>
        </mxCell>
        <mxCell id="fLzw37gGoa5K4S7n3afN-15" value="" style="endArrow=open;endFill=1;endSize=12;html=1;exitX=0.5;exitY=1;exitDx=0;exitDy=0;entryX=1;entryY=0.5;entryDx=0;entryDy=0;edgeStyle=elbowEdgeStyle;elbow=vertical;" edge="1" parent="VSjCJC4euqaZ8-e5CSKN-2" source="fLzw37gGoa5K4S7n3afN-11" target="fLzw37gGoa5K4S7n3afN-14">
          <mxGeometry width="160" relative="1" as="geometry">
            <mxPoint x="707.5" y="456" as="sourcePoint" />
            <mxPoint x="767.5" y="456" as="targetPoint" />
            <Array as="points">
              <mxPoint x="490" y="491" />
            </Array>
          </mxGeometry>
        </mxCell>
        <mxCell id="4MG4baAXTeGthbNdgmhY-1" value="" style="endArrow=open;endFill=1;endSize=12;html=1;exitX=0;exitY=0.5;exitDx=0;exitDy=0;entryX=0.5;entryY=0;entryDx=0;entryDy=0;edgeStyle=elbowEdgeStyle;elbow=vertical;" edge="1" parent="VSjCJC4euqaZ8-e5CSKN-2" source="fLzw37gGoa5K4S7n3afN-14" target="4MG4baAXTeGthbNdgmhY-0">
          <mxGeometry width="160" relative="1" as="geometry">
            <mxPoint x="845" y="476" as="sourcePoint" />
            <mxPoint x="645" y="541" as="targetPoint" />
            <Array as="points">
              <mxPoint x="200" y="491" />
              <mxPoint x="500" y="501" />
            </Array>
          </mxGeometry>
        </mxCell>
        <mxCell id="4MG4baAXTeGthbNdgmhY-2" value="tidak" style="edgeLabel;html=1;align=center;verticalAlign=middle;resizable=0;points=[];" vertex="1" connectable="0" parent="4MG4baAXTeGthbNdgmhY-1">
          <mxGeometry x="-0.092" y="-1" relative="1" as="geometry">
            <mxPoint as="offset" />
          </mxGeometry>
        </mxCell>
        <mxCell id="4MG4baAXTeGthbNdgmhY-3" value="" style="endArrow=open;endFill=1;endSize=12;html=1;exitX=0;exitY=0.5;exitDx=0;exitDy=0;entryX=1;entryY=0.5;entryDx=0;entryDy=0;" edge="1" parent="VSjCJC4euqaZ8-e5CSKN-2" source="fLzw37gGoa5K4S7n3afN-9" target="4MG4baAXTeGthbNdgmhY-0">
          <mxGeometry width="160" relative="1" as="geometry">
            <mxPoint x="472.5" y="456" as="sourcePoint" />
            <mxPoint x="552.5" y="456" as="targetPoint" />
          </mxGeometry>
        </mxCell>
      </root>
    </mxGraphModel>
  </diagram>
</mxfile>
